<mxfile host="app.diagrams.net" modified="2023-06-27T10:29:36.602Z" agent="Mozilla/5.0 (Windows NT 10.0; Win64; x64) AppleWebKit/537.36 (KHTML, like Gecko) Chrome/114.0.0.0 Safari/537.36 Edg/114.0.1823.58" etag="5iXcFVKVzHLgetK5Y3Zl" version="21.5.1" type="device">
  <diagram name="第 1 页" id="l70aF5ya5pH_70_c91hJ">
    <mxGraphModel dx="1221" dy="687" grid="1" gridSize="10" guides="1" tooltips="1" connect="1" arrows="1" fold="1" page="1" pageScale="1" pageWidth="827" pageHeight="1169" math="1" shadow="0">
      <root>
        <mxCell id="0" />
        <mxCell id="1" parent="0" />
        <mxCell id="-wD7Cb75ZWGU9SVJ_9IL-13" value="" style="ellipse;whiteSpace=wrap;html=1;dashed=1;fillColor=none;rotation=-240;strokeColor=#FF0000;fontStyle=0;strokeWidth=3;" parent="1" vertex="1">
          <mxGeometry x="128.84" y="286.38" width="213.09" height="100" as="geometry" />
        </mxCell>
        <mxCell id="-wD7Cb75ZWGU9SVJ_9IL-7" style="rounded=0;orthogonalLoop=1;jettySize=auto;html=1;exitX=1;exitY=0;exitDx=0;exitDy=0;entryX=0;entryY=0.5;entryDx=0;entryDy=0;endArrow=none;endFill=0;fontStyle=0;strokeWidth=2;" parent="1" source="-wD7Cb75ZWGU9SVJ_9IL-1" target="-wD7Cb75ZWGU9SVJ_9IL-2" edge="1">
          <mxGeometry relative="1" as="geometry" />
        </mxCell>
        <mxCell id="-wD7Cb75ZWGU9SVJ_9IL-9" style="edgeStyle=none;rounded=0;orthogonalLoop=1;jettySize=auto;html=1;exitX=0.5;exitY=1;exitDx=0;exitDy=0;endArrow=none;endFill=0;fontStyle=0;strokeWidth=2;" parent="1" source="-wD7Cb75ZWGU9SVJ_9IL-1" target="-wD7Cb75ZWGU9SVJ_9IL-6" edge="1">
          <mxGeometry relative="1" as="geometry" />
        </mxCell>
        <mxCell id="-wD7Cb75ZWGU9SVJ_9IL-17" style="edgeStyle=none;rounded=0;orthogonalLoop=1;jettySize=auto;html=1;exitX=1;exitY=1;exitDx=0;exitDy=0;entryX=0;entryY=0;entryDx=0;entryDy=0;endArrow=none;endFill=0;fontStyle=0;strokeWidth=2;" parent="1" source="-wD7Cb75ZWGU9SVJ_9IL-1" target="-wD7Cb75ZWGU9SVJ_9IL-5" edge="1">
          <mxGeometry relative="1" as="geometry" />
        </mxCell>
        <mxCell id="-wD7Cb75ZWGU9SVJ_9IL-1" value="" style="ellipse;whiteSpace=wrap;html=1;aspect=fixed;fontStyle=0;fillColor=#ffff88;strokeColor=#36393d;fillStyle=auto;strokeWidth=2;" parent="1" vertex="1">
          <mxGeometry x="190" y="310" width="25" height="25" as="geometry" />
        </mxCell>
        <mxCell id="-wD7Cb75ZWGU9SVJ_9IL-8" style="edgeStyle=none;rounded=0;orthogonalLoop=1;jettySize=auto;html=1;exitX=1;exitY=0.5;exitDx=0;exitDy=0;entryX=0;entryY=0;entryDx=0;entryDy=0;endArrow=none;endFill=0;fontStyle=0;strokeWidth=2;" parent="1" source="-wD7Cb75ZWGU9SVJ_9IL-2" target="-wD7Cb75ZWGU9SVJ_9IL-3" edge="1">
          <mxGeometry relative="1" as="geometry" />
        </mxCell>
        <mxCell id="-wD7Cb75ZWGU9SVJ_9IL-2" value="" style="ellipse;whiteSpace=wrap;html=1;aspect=fixed;fontStyle=0;fillColor=#ffff88;strokeColor=#36393d;fillStyle=auto;strokeWidth=2;" parent="1" vertex="1">
          <mxGeometry x="270" y="270" width="25" height="25" as="geometry" />
        </mxCell>
        <mxCell id="-wD7Cb75ZWGU9SVJ_9IL-10" style="edgeStyle=none;rounded=0;orthogonalLoop=1;jettySize=auto;html=1;exitX=0.5;exitY=1;exitDx=0;exitDy=0;entryX=0.5;entryY=0;entryDx=0;entryDy=0;endArrow=none;endFill=0;fontStyle=0;strokeWidth=2;" parent="1" source="-wD7Cb75ZWGU9SVJ_9IL-3" target="-wD7Cb75ZWGU9SVJ_9IL-4" edge="1">
          <mxGeometry relative="1" as="geometry" />
        </mxCell>
        <mxCell id="-wD7Cb75ZWGU9SVJ_9IL-18" style="edgeStyle=none;rounded=0;orthogonalLoop=1;jettySize=auto;html=1;exitX=0;exitY=0.5;exitDx=0;exitDy=0;entryX=1;entryY=0.5;entryDx=0;entryDy=0;endArrow=none;endFill=0;fontStyle=0;strokeWidth=2;" parent="1" source="-wD7Cb75ZWGU9SVJ_9IL-3" target="-wD7Cb75ZWGU9SVJ_9IL-1" edge="1">
          <mxGeometry relative="1" as="geometry" />
        </mxCell>
        <mxCell id="-wD7Cb75ZWGU9SVJ_9IL-3" value="" style="ellipse;whiteSpace=wrap;html=1;aspect=fixed;fontStyle=0;fillColor=#cce5ff;strokeColor=#36393d;strokeWidth=2;" parent="1" vertex="1">
          <mxGeometry x="350" y="310" width="25" height="25" as="geometry" />
        </mxCell>
        <mxCell id="-wD7Cb75ZWGU9SVJ_9IL-12" style="edgeStyle=none;rounded=0;orthogonalLoop=1;jettySize=auto;html=1;exitX=0;exitY=1;exitDx=0;exitDy=0;entryX=1;entryY=0.5;entryDx=0;entryDy=0;endArrow=none;endFill=0;fontStyle=0;strokeWidth=2;" parent="1" source="-wD7Cb75ZWGU9SVJ_9IL-4" target="-wD7Cb75ZWGU9SVJ_9IL-5" edge="1">
          <mxGeometry relative="1" as="geometry" />
        </mxCell>
        <mxCell id="-wD7Cb75ZWGU9SVJ_9IL-4" value="" style="ellipse;whiteSpace=wrap;html=1;aspect=fixed;fontStyle=0;fillColor=#cce5ff;strokeColor=#36393d;strokeWidth=2;" parent="1" vertex="1">
          <mxGeometry x="350" y="390" width="25" height="25" as="geometry" />
        </mxCell>
        <mxCell id="-wD7Cb75ZWGU9SVJ_9IL-16" style="edgeStyle=none;rounded=0;orthogonalLoop=1;jettySize=auto;html=1;exitX=0.5;exitY=0;exitDx=0;exitDy=0;entryX=0.5;entryY=1;entryDx=0;entryDy=0;endArrow=none;endFill=0;fontStyle=0;strokeWidth=2;" parent="1" source="-wD7Cb75ZWGU9SVJ_9IL-5" target="-wD7Cb75ZWGU9SVJ_9IL-2" edge="1">
          <mxGeometry relative="1" as="geometry" />
        </mxCell>
        <mxCell id="-wD7Cb75ZWGU9SVJ_9IL-5" value="" style="ellipse;whiteSpace=wrap;html=1;aspect=fixed;fontStyle=0;fillColor=#cce5ff;strokeColor=#36393d;strokeWidth=2;" parent="1" vertex="1">
          <mxGeometry x="270" y="430" width="25" height="25" as="geometry" />
        </mxCell>
        <mxCell id="-wD7Cb75ZWGU9SVJ_9IL-11" style="edgeStyle=none;rounded=0;orthogonalLoop=1;jettySize=auto;html=1;exitX=1;exitY=1;exitDx=0;exitDy=0;entryX=0;entryY=0.5;entryDx=0;entryDy=0;endArrow=none;endFill=0;fontStyle=0;strokeWidth=2;" parent="1" source="-wD7Cb75ZWGU9SVJ_9IL-6" target="-wD7Cb75ZWGU9SVJ_9IL-5" edge="1">
          <mxGeometry relative="1" as="geometry" />
        </mxCell>
        <mxCell id="-wD7Cb75ZWGU9SVJ_9IL-6" value="" style="ellipse;whiteSpace=wrap;html=1;aspect=fixed;fontStyle=0;fillColor=#ffff88;strokeColor=#36393d;fillStyle=auto;strokeWidth=2;" parent="1" vertex="1">
          <mxGeometry x="190" y="390" width="25" height="25" as="geometry" />
        </mxCell>
        <mxCell id="-wD7Cb75ZWGU9SVJ_9IL-15" value="$$S$$" style="text;html=1;strokeColor=none;fillColor=none;align=center;verticalAlign=middle;whiteSpace=wrap;rounded=0;fontSize=18;fontStyle=0" parent="1" vertex="1">
          <mxGeometry x="220" y="250" width="60" height="30" as="geometry" />
        </mxCell>
        <mxCell id="-wD7Cb75ZWGU9SVJ_9IL-19" value="$$\mathcal{G}$$" style="text;html=1;strokeColor=none;fillColor=none;align=center;verticalAlign=middle;whiteSpace=wrap;rounded=0;fontSize=18;fontStyle=0" parent="1" vertex="1">
          <mxGeometry x="255" y="470" width="60" height="30" as="geometry" />
        </mxCell>
        <mxCell id="-wD7Cb75ZWGU9SVJ_9IL-26" style="edgeStyle=none;rounded=0;orthogonalLoop=1;jettySize=auto;html=1;exitX=1;exitY=0.5;exitDx=0;exitDy=0;entryX=0;entryY=0.5;entryDx=0;entryDy=0;endArrow=none;endFill=0;strokeWidth=4;fontStyle=0" parent="1" source="-wD7Cb75ZWGU9SVJ_9IL-20" target="-wD7Cb75ZWGU9SVJ_9IL-23" edge="1">
          <mxGeometry relative="1" as="geometry" />
        </mxCell>
        <mxCell id="-wD7Cb75ZWGU9SVJ_9IL-28" value="$$2$$" style="edgeLabel;html=1;align=center;verticalAlign=middle;resizable=0;points=[];labelBackgroundColor=none;fontSize=18;fontStyle=0" parent="-wD7Cb75ZWGU9SVJ_9IL-26" vertex="1" connectable="0">
          <mxGeometry x="-0.1354" y="2" relative="1" as="geometry">
            <mxPoint x="8" y="-13" as="offset" />
          </mxGeometry>
        </mxCell>
        <mxCell id="-wD7Cb75ZWGU9SVJ_9IL-27" style="edgeStyle=none;rounded=0;orthogonalLoop=1;jettySize=auto;html=1;exitX=0.5;exitY=1;exitDx=0;exitDy=0;entryX=0.5;entryY=0;entryDx=0;entryDy=0;endArrow=none;endFill=0;strokeWidth=6;fontStyle=0" parent="1" source="-wD7Cb75ZWGU9SVJ_9IL-20" target="-wD7Cb75ZWGU9SVJ_9IL-21" edge="1">
          <mxGeometry relative="1" as="geometry" />
        </mxCell>
        <mxCell id="-wD7Cb75ZWGU9SVJ_9IL-29" value="$$3$$" style="edgeLabel;html=1;align=center;verticalAlign=middle;resizable=0;points=[];labelBackgroundColor=none;fontSize=18;fontStyle=0" parent="-wD7Cb75ZWGU9SVJ_9IL-27" vertex="1" connectable="0">
          <mxGeometry x="-0.2702" y="1" relative="1" as="geometry">
            <mxPoint x="-16" y="13" as="offset" />
          </mxGeometry>
        </mxCell>
        <mxCell id="-wD7Cb75ZWGU9SVJ_9IL-20" value="&lt;font style=&quot;font-size: 18px;&quot;&gt;$$s$$&lt;/font&gt;" style="ellipse;whiteSpace=wrap;html=1;aspect=fixed;fontSize=12;fontStyle=0;fillColor=#ffff88;strokeColor=#36393d;fillStyle=auto;strokeWidth=2;" parent="1" vertex="1">
          <mxGeometry x="510" y="290" width="25" height="25" as="geometry" />
        </mxCell>
        <mxCell id="-wD7Cb75ZWGU9SVJ_9IL-24" style="edgeStyle=none;rounded=0;orthogonalLoop=1;jettySize=auto;html=1;exitX=1;exitY=0.5;exitDx=0;exitDy=0;entryX=0;entryY=0.5;entryDx=0;entryDy=0;endArrow=none;endFill=0;fontStyle=0;strokeWidth=2;" parent="1" source="-wD7Cb75ZWGU9SVJ_9IL-21" target="-wD7Cb75ZWGU9SVJ_9IL-22" edge="1">
          <mxGeometry relative="1" as="geometry" />
        </mxCell>
        <mxCell id="-wD7Cb75ZWGU9SVJ_9IL-21" value="" style="ellipse;whiteSpace=wrap;html=1;aspect=fixed;fontStyle=0;fillColor=#cce5ff;strokeColor=#36393d;strokeWidth=2;" parent="1" vertex="1">
          <mxGeometry x="510" y="410" width="25" height="25" as="geometry" />
        </mxCell>
        <mxCell id="-wD7Cb75ZWGU9SVJ_9IL-22" value="" style="ellipse;whiteSpace=wrap;html=1;aspect=fixed;fontStyle=0;fillColor=#cce5ff;strokeColor=#36393d;strokeWidth=2;" parent="1" vertex="1">
          <mxGeometry x="650" y="410" width="25" height="25" as="geometry" />
        </mxCell>
        <mxCell id="-wD7Cb75ZWGU9SVJ_9IL-25" style="edgeStyle=none;rounded=0;orthogonalLoop=1;jettySize=auto;html=1;exitX=0.5;exitY=1;exitDx=0;exitDy=0;entryX=0.5;entryY=0;entryDx=0;entryDy=0;endArrow=none;endFill=0;fontStyle=0;strokeWidth=2;" parent="1" source="-wD7Cb75ZWGU9SVJ_9IL-23" target="-wD7Cb75ZWGU9SVJ_9IL-22" edge="1">
          <mxGeometry relative="1" as="geometry" />
        </mxCell>
        <mxCell id="-wD7Cb75ZWGU9SVJ_9IL-23" value="" style="ellipse;whiteSpace=wrap;html=1;aspect=fixed;fontStyle=0;fillColor=#cce5ff;strokeColor=#36393d;strokeWidth=2;" parent="1" vertex="1">
          <mxGeometry x="650" y="290" width="25" height="25" as="geometry" />
        </mxCell>
        <mxCell id="-wD7Cb75ZWGU9SVJ_9IL-32" value="$$\mathcal{G}&#39;$$" style="text;html=1;strokeColor=none;fillColor=none;align=center;verticalAlign=middle;whiteSpace=wrap;rounded=0;fontSize=18;fontStyle=0" parent="1" vertex="1">
          <mxGeometry x="560" y="470" width="60" height="30" as="geometry" />
        </mxCell>
        <mxCell id="1h2cwk-IXe99Wyn3LGay-2" value="$$\Longrightarrow$$" style="text;html=1;strokeColor=none;fillColor=none;align=center;verticalAlign=middle;whiteSpace=wrap;rounded=0;strokeWidth=1;fontStyle=0;fontSize=36;" vertex="1" parent="1">
          <mxGeometry x="410" y="340" width="60" height="30" as="geometry" />
        </mxCell>
      </root>
    </mxGraphModel>
  </diagram>
</mxfile>
